<?xml version="1.0" encoding="UTF-8" standalone="no"?>
<svg
   xmlns:dc="http://purl.org/dc/elements/1.1/"
   xmlns:cc="http://creativecommons.org/ns#"
   xmlns:rdf="http://www.w3.org/1999/02/22-rdf-syntax-ns#"
   xmlns:svg="http://www.w3.org/2000/svg"
   xmlns="http://www.w3.org/2000/svg"
   xmlns:sodipodi="http://sodipodi.sourceforge.net/DTD/sodipodi-0.dtd"
   xmlns:inkscape="http://www.inkscape.org/namespaces/inkscape"
   version="1.1"
   viewBox="0 0 39 39"
   width="39"
   height="39"
   xml:space="preserve"
   id="svg10"
   sodipodi:docname="-r3j-x8ZnM7.svg"
   inkscape:export-filename="/home/lucas/Imagens/-r3j-x8ZnM7.png"
   inkscape:export-xdpi="100"
   inkscape:export-ydpi="100"
   inkscape:version="1.0.1 (3bc2e813f5, 2020-09-07)"><metadata
   id="metadata16"><rdf:RDF><cc:Work
       rdf:about=""><dc:format>image/svg+xml</dc:format><dc:type
         rdf:resource="http://purl.org/dc/dcmitype/StillImage" /><dc:title></dc:title></cc:Work></rdf:RDF></metadata><defs
   id="defs14" /><sodipodi:namedview
   pagecolor="#ffffff"
   bordercolor="#666666"
   borderopacity="1"
   objecttolerance="10"
   gridtolerance="10"
   guidetolerance="10"
   inkscape:pageopacity="0"
   inkscape:pageshadow="2"
   inkscape:window-width="1920"
   inkscape:window-height="1019"
   id="namedview12"
   showgrid="false"
   inkscape:zoom="10.601449"
   inkscape:cx="40.553263"
   inkscape:cy="19.5"
   inkscape:window-x="0"
   inkscape:window-y="25"
   inkscape:window-maximized="1"
   inkscape:current-layer="svg10" />
    <style
   type="text/css"
   id="style2">
        .st0{fill:#00E676;}
        .icon_logo_white{fill:#FFFFFF;}
    </style>

    <path
   class="st0"
   d="m 10.7,32.8 0.6,0.3 c 2.5,1.5 5.3,2.2 8.1,2.2 v 0 c 8.8,0 16,-7.2 16,-16 0,-4.2 -1.7,-8.3 -4.7,-11.3 -3,-3 -7,-4.7 -11.3,-4.7 -8.8,0 -16,7.2 -15.9,16.1 0,3 0.9,5.9 2.4,8.4 l 0.4,0.6 -1.6,5.9 z"
   id="path4" />
    <path
   class="icon_logo_white"
   d="M 32.4,6.4 C 29,2.9 24.3,1 19.5,1 9.3,1 1.1,9.3 1.2,19.4 c 0,3.2 0.9,6.3 2.4,9.1 L 1,38 10.7,35.5 c 2.7,1.5 5.7,2.2 8.7,2.2 v 0 c 10.1,0 18.3,-8.3 18.3,-18.4 0,-4.9 -1.9,-9.5 -5.3,-12.9 z M 19.5,34.6 v 0 c -2.7,0 -5.4,-0.7 -7.7,-2.1 L 11.2,32.2 5.4,33.7 6.9,28 6.5,27.4 C 2.1,20.3 4.2,10.9 11.4,6.5 c 7.2,-4.4 16.5,-2.3 20.9,4.9 4.4,7.2 2.3,16.5 -4.9,20.9 -2.3,1.5 -5.1,2.3 -7.9,2.3 z M 28.3,23.5 27.2,23 c 0,0 -1.6,-0.7 -2.6,-1.2 -0.1,0 -0.2,-0.1 -0.3,-0.1 -0.3,0 -0.5,0.1 -0.7,0.2 v 0 c 0,0 -0.1,0.1 -1.5,1.7 -0.1,0.2 -0.3,0.3 -0.5,0.3 h -0.1 c -0.1,0 -0.3,-0.1 -0.4,-0.2 l -0.5,-0.2 v 0 C 19.5,23 18.5,22.4 17.7,21.6 17.5,21.4 17.2,21.2 17,21 16.3,20.3 15.6,19.5 15.1,18.6 L 15,18.4 c -0.1,-0.1 -0.1,-0.2 -0.2,-0.4 0,-0.2 0,-0.4 0.1,-0.5 0,0 0.4,-0.5 0.7,-0.8 0.2,-0.2 0.3,-0.5 0.5,-0.7 0.2,-0.3 0.3,-0.7 0.2,-1 C 16.2,14.5 15,11.8 14.7,11.2 14.5,10.9 14.3,10.8 14,10.7 h -0.3 c -0.2,0 -0.5,0 -0.8,0 -0.2,0 -0.4,0.1 -0.6,0.1 l -0.1,0.1 c -0.2,0.1 -0.4,0.3 -0.6,0.4 -0.2,0.2 -0.3,0.4 -0.5,0.6 -0.7,0.9 -1.1,2 -1.1,3.1 v 0 c 0,0.8 0.2,1.6 0.5,2.3 l 0.1,0.3 c 0.9,1.9 2.1,3.6 3.7,5.1 l 0.4,0.4 c 0.3,0.3 0.6,0.5 0.8,0.8 2.1,1.8 4.5,3.1 7.2,3.8 0.3,0.1 0.7,0.1 1,0.2 v 0 c 0.3,0 0.7,0 1,0 0.5,0 1.1,-0.2 1.5,-0.4 0.3,-0.2 0.5,-0.2 0.7,-0.4 l 0.2,-0.2 c 0.2,-0.2 0.4,-0.3 0.6,-0.5 0.2,-0.2 0.4,-0.4 0.5,-0.6 0.2,-0.4 0.3,-0.9 0.4,-1.4 0,-0.2 0,-0.5 0,-0.7 0,0 -0.1,-0.1 -0.3,-0.2 z"
   id="path6" />
    
    </svg>
